<svg id="Layer_1" xmlns="http://www.w3.org/2000/svg" viewBox="0 0 1291.4 181.5"><style>.st0{fill:#707070;}</style><path class="st0" d="M127.1 6.2h-13.3L77 98.8h12.2L101.6 67h35l12.2 31.8h15L127.1 6.2zM105 58.4l14.3-36.7 14 36.7H105zM751.9 28.1c0-9.8 8.2-14.1 18.5-14.1 7.6 0 14.7 2.5 20.8 6.4l6.7-8.5C789.6 7.6 780.1 5 770.5 5c-16.5 0-33.2 8.3-33.2 24.2 0 29.1 48.5 21.9 48.5 46.2 0 11.3-11.8 15.9-21.4 15.9-8.5 0-18.4-3.3-24.8-8.1l-5.2 10.4c9.3 4.2 19.1 6.9 29.6 6.9 19.1 0 36.4-8.4 36.4-26.7.1-30.7-48.5-26-48.5-45.7zM1101.9 66c0 15.1-9.3 25.6-27.4 25.6-17.5 0-25.4-9.3-25.4-23.8V6.2h-16.8l3 8.8v52.8c0 21.4 14.3 32.6 38.6 32.6 24.9 0 39.2-12.9 39.2-34.4V6.2h-11.2V66zM1287.2 15V6.2h-64.7l3 8.8v83.8h61.7V90h-48.1V55.6h37.3v-8.7h-37.3V15zM366.5 98.8h61.7V90H380V57.2h37.4v-8.6H380V15h48.2V6.2h-64.7l3 8.8zM937.5 15h31.9v83.8h13.9V15h31.9V6.2h-77.7zM1130.8 15h31.9v83.8h13.9V15h31.9V6.2h-77.7zM702.1 75.5L653 6.2h-18.7l3 8.8v83.8h11V21l56.3 78.5h8.6V6.2h-11.1zM225.7 54.8c11.1-3.1 20.3-12.7 20.3-23 0-19.9-15.7-25.6-35.9-25.6h-32.6l3 8.8v83.9h13.6V57.2h7.3c3.8 0 7.6 0 10.9-.3l27.4 41.9h15.7l-29.7-44zm-19.9-6.2h-11.7V15h16c11.4 0 21.7 5.2 21.7 16 .1 14-11.6 17.6-26 17.6zM498 54.8c11.1-3.1 20.3-12.7 20.3-23 0-19.9-15.7-25.6-35.9-25.6h-32.6l3 8.8v83.9h13.6V57.2h7.3c3.8 0 7.6 0 10.9-.3L512 98.8h15.7l-29.7-44zm-20-6.2h-11.7V15h16c11.4 0 21.7 5.2 21.7 16 .1 14-11.6 17.6-26 17.6zM39.1 6.2H6.5l3 8.8v83.9H23V67h16.2c19.7 0 35.6-10.2 35.6-30.4 0-21.7-14.7-30.4-35.7-30.4zm-.2 52.2H23V15h16c14 0 21.6 8.2 21.6 21.6 0 13-8.3 21.8-21.7 21.8zM339.2 6.2h-14.1l-35.6 44.9V6.2h-16.6l3 8.8v83.8h13.6V57.1l40.4 41.7h17l-44.5-45.9zM808.8 15h31.9v83.8h13.9V15h31.9V6.2h-70.8zM589 6.2l3 8.8v83.8h13.5V6.2zM903.2 6.2l3 8.8v83.8h13.5V6.2z"/><g><path class="st0" d="M42.2 167.1c0-1 .1-2.1.3-3.2l1.6-9.2c1.5-8.6 8-13.5 16.2-13.5 7.1 0 11.7 3.4 11.7 10 0 1-.1 2.2-.3 3.4l-1.5 8.9c-1.5 8.5-7.8 13.5-16 13.5-7.2.1-12-3.1-12-9.9zm24.1-3.5l1.6-9.3c.1-.9.3-1.9.3-2.5 0-4.5-2.9-7.3-8.4-7.3-6.9 0-10.7 4.3-11.7 10.2l-1.6 9.2c-.1.9-.3 1.6-.3 2.5 0 4.8 2.8 7.5 8.4 7.5 6.4 0 10.6-3.9 11.7-10.3zM98.4 142h3.6l-1.3 7.4h.3c3.7-6.3 9.6-7.8 14.2-7.8.7 0 1.6.1 2.3.2l-.7 3.5c-1-.1-2.5-.1-3.3-.1-6.7 0-12.4 4.3-13.9 12l-3.4 19h-3.8l6-34.2zM168.1 160.9v-17.5c0-10 7.6-17.1 18.3-17.1 9.9 0 17.1 5.8 17.1 14.2v2.7h-4.2v-2.1c0-6.7-5-11-13.1-11-8 0-13.7 5.2-13.7 13.3v16.8c0 8 5.7 13.1 14.1 13.1 8 0 12.8-4.4 12.8-11.1V161h4.2v1.9c0 8.7-7.1 14.2-17 14.2-10.5 0-18.5-5.6-18.5-16.2zM242.1 127.1h4.1l18 49.1h-4.5l-5.5-15.5h-20.5l-5.6 15.5h-4.3l18.3-49.1zm10.8 30l-8.9-24.9-9.1 24.9h18zM287.8 127.2h4.5l26.6 41.4h.1v-41.4h4.1v49h-4.3l-26.9-42h-.1v42h-4.1v-49zM348.8 160.9v-17.5c0-10 7.6-17.1 18.3-17.1 9.9 0 17.1 5.8 17.1 14.2v2.7H380v-2.1c0-6.7-5-11-13.1-11-8 0-13.7 5.2-13.7 13.3v16.8c0 8 5.7 13.1 14.1 13.1 8 0 12.8-4.4 12.8-11.1V161h4.2v1.9c0 8.7-7.1 14.2-17 14.2-10.4 0-18.5-5.6-18.5-16.2zM409.2 127.2h30.6v3.8h-26.2v17.9h21.7v3.8h-21.7v19.6H440v3.8h-30.7v-48.9zM465.2 127.2h16.7c9.4 0 15.8 5.3 15.8 14.3 0 7-4.1 12.9-12.7 14.2l14.9 20.5H495L480.4 156h-10.9v20.2h-4.3v-49zm15.4 25.2c8.2 0 12.8-3.4 12.8-10.9 0-7.1-4.9-10.5-12.8-10.5h-11v21.4h11zM554.9 127.2h4.3v49h-4.3v-49zM586.2 127.2h5.4l16.3 29.9h.1l15.9-29.9h5.5v49h-4.3v-41.5h-.1L609.5 163H606l-15.5-28.2h-.2v41.4h-4.2v-49zM656.3 127.2h5.4l16.3 29.9h.1l15.9-29.9h5.5v49h-4.3v-41.5h-.2L679.6 163h-3.4l-15.5-28.2h-.2v41.4h-4.2v-49zM725.9 160.5v-33.3h4.3v32.4c0 9.7 6.1 13.6 13.5 13.6 8.2 0 13.4-4.6 13.4-12.7v-33.2h4.3v33.4c0 10.2-7.1 16.4-17.9 16.4-8.7-.1-17.6-4.7-17.6-16.6zM788 127.2h4.5l26.6 41.4h.1v-41.4h4.1v49H819l-26.9-42h-.1v42h-4v-49zM849.1 160.9v-17c0-10.9 8-17.6 18.3-17.6 10.4 0 18.3 6 18.3 16.6v16.6c0 10.9-8 17.6-18.2 17.6-10.1 0-18.4-5.6-18.4-16.2zm32.3-1v-17.1c0-7.9-5.6-12.6-14.2-12.6-8 0-13.7 5.3-13.7 13.7v16.3c0 8 5.7 13.1 14.1 13.1 7.8-.1 13.8-5 13.8-13.4zM922 131h-16.6v-3.8h37.4v3.8h-16.5v45.2H922V131zM965.9 127.2h4.3v21.7h26.6v-21.7h4.3v49h-4.3v-23.5h-26.6v23.5h-4.3v-49zM1028.1 127.2h30.6v3.8h-26.2v17.9h21.7v3.8h-21.7v19.6h26.4v3.8h-30.7v-48.9zM1084.1 127.2h16.7c9.4 0 15.8 5.3 15.8 14.3 0 7-4.1 12.9-12.7 14.2l14.9 20.5h-4.9l-14.6-20.2h-10.9v20.2h-4.3v-49zm15.3 25.2c8.2 0 12.8-3.4 12.8-10.9 0-7.1-4.9-10.5-12.8-10.5h-11v21.4h11zM1156 127.1h4.1l18 49.1h-4.5l-5.5-15.5h-20.5l-5.6 15.5h-4.3l18.3-49.1zm10.8 30l-8.9-24.9h-.1l-9.1 24.9h18.1zM1201.7 127.2h16.8c9.5 0 15.5 5.9 15.5 14.5 0 8.4-6 14.8-16.5 14.8H1206v19.7h-4.3v-49zm14.7 25.6c8.2 0 13.3-3.6 13.3-11.1 0-6.6-4.8-10.8-11.7-10.8h-12v21.8h10.4zM1268.5 155.6l-15.7-28.4h4.9l13.1 24.1 13-24.1h4.7l-15.7 28.4v20.5h-4.3v-20.5zM8.4 176.2h3.7l5.5-31.1h8.2l.5-3h-8.2l1.2-6.8c.8-4.3 3.6-5.9 6.5-5.9 1.4 0 2.2.1 3.3.4l.5-3.2c-1.2-.3-2.3-.4-3.6-.4-5.6 0-9.5 3-10.6 9.5l-1.1 6.5H7.5l-.5 3h6.8l-5.4 31z"/></g></svg>